<?xml version="1.0" encoding="iso-8859-1"?>
<!-- Generator: Adobe Illustrator 13.0.0, SVG Export Plug-In . SVG Version: 6.00 Build 14948)  -->
<!DOCTYPE svg PUBLIC "-//W3C//DTD SVG 1.1//EN" "http://www.w3.org/Graphics/SVG/1.1/DTD/svg11.dtd">
<svg version="1.1" id="Layer_1" xmlns="http://www.w3.org/2000/svg" xmlns:xlink="http://www.w3.org/1999/xlink" x="0px" y="0px"
	 width="100px" height="100px" viewBox="0 0 100 100" enable-background="new 0 0 100 100" xml:space="preserve">
<g>
	<path fill="#272525" d="M46.821,62.229C34.692,54.5,27.227,44.197,29.196,38.338c-2.406,0.185-4.013,1.537-4.82,4.062L20.38,54.661
		c-0.272,0.733-0.404,1.331-0.404,1.792c0.074,1.533,1.104,2.295,3.098,2.295h14.279L32.83,73.031
		c-0.264,0.66-0.396,1.253-0.396,1.78c0,1.517,1.03,2.274,3.09,2.274h12.261c2.728,0,4.516-1.359,5.381-4.087l1.994-6.292
		C52.424,65.509,49.614,64.01,46.821,62.229z"/>
	<path fill="#FFFFFF" d="M76.262,60.4c-0.099,0.156-0.239,0.288-0.396,0.387c0.659,2.266,0.568,4.277-0.403,5.834
		c-3.362,5.414-16.076,3.283-28.387-4.758c-12.31-8.043-19.561-18.948-16.191-24.365c1.467-2.361,4.713-3.275,8.916-2.905
		c0.008-0.049,0.017-0.09,0.033-0.14c0,0,0-0.008,0-0.012c-5.546-0.911-9.88-0.012-11.701,2.921
		c-3.667,5.896,4.235,17.781,17.641,26.541c13.415,8.763,27.257,11.082,30.924,5.183C78.074,66.873,77.818,63.815,76.262,60.4z"/>
	<radialGradient id="SVGID_1_" cx="62.8828" cy="42.875" r="26.123" gradientUnits="userSpaceOnUse">
		<stop  offset="0" style="stop-color:#CB2229"/>
		<stop  offset="0.1488" style="stop-color:#B31A20"/>
		<stop  offset="0.3518" style="stop-color:#981216"/>
		<stop  offset="0.5596" style="stop-color:#850C0F"/>
		<stop  offset="0.7728" style="stop-color:#7A080B"/>
		<stop  offset="1" style="stop-color:#76070A"/>
	</radialGradient>
	<path fill="url(#SVGID_1_)" d="M78.676,38.317H64.404l4.615-14.254c0.264-0.667,0.395-1.261,0.395-1.796
		c-0.065-1.524-1.088-2.291-3.073-2.291H54.138c-2.711,0-4.532,1.372-5.455,4.12l-4.606,14.222H31.924
		c-1.879,5.364,4.985,14.864,16.149,21.983c2.612,1.665,5.249,3.062,7.795,4.174l1.813-5.727h14.295c1.352,0,2.48-0.334,3.387-0.997
		c-0.494-1.142-1.153-2.332-1.994-3.552c0.874,1.142,1.623,2.267,2.233,3.362c0.815-0.68,1.442-1.64,1.87-2.9L81.478,42.4
		c0.198-0.729,0.296-1.327,0.296-1.792C81.708,39.08,80.678,38.317,78.676,38.317z"/>
	<path fill="#272525" d="M73.369,54.199c2.852,4.174,3.799,8.034,2.168,10.593c-3.256,5.108-15.549,3.099-27.464-4.491
		C36.167,52.713,29.155,42.417,32.41,37.308c1.681-2.632,5.751-3.374,10.926-2.439c-6.436-1.504-11.577-0.836-13.588,2.312
		c-3.543,5.566,4.096,16.776,17.073,25.049c12.97,8.265,26.358,10.456,29.91,4.886C78.684,64.051,77.242,59.264,73.369,54.199z"/>
</g>
</svg>
